<svg version="1.1" xmlns="http://www.w3.org/2000/svg" style="display: block;" viewBox="0 0 2048 2048" width="1024" height="1024">
<path transform="translate(0,0)" fill="rgb(245,244,236)" d="M 0 0 L 2048 0 L 2048 2048 L 0 2048 L 0 0 z"/>
<path transform="translate(0,0)" fill="rgb(51,31,28)" d="M 1317.6 130.407 C 1317.93 130.262 1318.24 130.043 1318.59 129.973 C 1325.84 128.536 1352.63 129.972 1361.49 129.927 C 1377.32 129.846 1393.3 129.483 1409.09 130.551 C 1456.03 133.727 1502.65 145.004 1548.35 155.569 C 1578.84 162.617 1609.64 169.47 1638.87 180.837 C 1667.76 192.074 1695.77 207.228 1722.25 223.273 C 1739.62 233.799 1753.54 246.369 1768.63 259.728 C 1784.99 274.218 1800.95 288.265 1815.12 304.994 C 1868.63 368.176 1908.16 463.245 1927.49 543.261 C 1954.11 653.464 1938.7 767.299 1891.53 869.489 C 1883.39 887.13 1874.84 905.176 1864.66 921.749 C 1822.44 990.472 1767.57 1048.11 1707.78 1101.59 C 1690.05 1117.45 1672.23 1133.36 1653.55 1148.1 C 1644.33 1155.37 1634.57 1161.84 1625.21 1168.9 C 1602.96 1185.69 1580.85 1202.27 1557.51 1217.56 C 1548.5 1223.47 1538.93 1228.54 1529.77 1234.23 C 1518.17 1241.42 1506.92 1249.26 1495.15 1256.16 C 1487.28 1260.77 1478.92 1264.59 1471.1 1269.25 C 1461.68 1274.86 1453.14 1281.91 1443.68 1287.46 C 1432.34 1294.12 1420.26 1299.68 1408.7 1305.97 C 1351.03 1337.33 1292.06 1366.47 1230.01 1388.18 C 1205.96 1396.6 1180.92 1402.63 1156.46 1409.75 C 1130.81 1417.22 1105.34 1424.23 1079.49 1430.95 C 1068.32 1433.85 1057.19 1437.4 1045.89 1439.74 C 1016.03 1445.91 985.642 1448.66 955.894 1455.7 C 948.395 1474.66 938.664 1492.01 928.761 1509.76 C 906.749 1549.21 882.369 1588.87 853.219 1623.54 C 788.847 1698.74 710.576 1760.82 622.695 1806.39 C 607.181 1814.49 590.962 1821.25 575.2 1828.85 C 558.556 1836.87 542.992 1846.72 525.983 1854.1 C 505.099 1863.17 483.087 1870.23 461.361 1876.99 C 410.04 1892.97 358.518 1905.4 304.752 1910.08 C 282.388 1912.21 201.681 1923.66 184.145 1913.9 C 181.692 1912.54 181.077 1911.33 180.201 1908.77 C 183.291 1901.3 233.601 1889.59 243.172 1886.82 C 326.551 1862.94 405.793 1826.46 478.155 1778.65 C 529.183 1745.31 577.653 1707.65 608.685 1654 C 640.005 1599.86 632.237 1551.01 615.235 1494.17 C 612 1483.36 607.976 1472.82 605.041 1461.91 C 573.682 1454.56 542.818 1443.71 512.489 1432.94 C 424.102 1401.55 350.893 1367.98 279.865 1305.03 C 195.995 1230.41 144.823 1125.81 137.391 1013.8 C 133.655 951.203 140.146 920.337 156.64 860.718 C 164.804 831.211 173.65 800.343 185.631 772.173 C 197.441 744.403 212.654 719.75 228.586 694.305 C 235.143 683.832 241.04 672.926 247.884 662.635 C 269.232 630.536 293.786 600.04 319.401 571.276 C 378.202 505.245 446.863 441.146 520.006 391.302 C 553.452 368.509 588.217 349.024 623.297 329.003 C 701.933 283.327 784.67 245.107 870.424 214.84 C 901.453 203.684 932.781 190.333 964.632 181.796 C 1004.89 171.005 1046.38 163.726 1087.3 155.802 C 1118.54 149.751 1149.66 142.667 1181.33 139.163 C 1226.66 134.148 1272.12 133.085 1317.6 130.407 z"/>
<path transform="translate(0,0)" fill="rgb(245,244,236)" d="M 1321.46 151.46 C 1358.35 150.937 1396.85 150.19 1433.58 153.934 C 1462.46 156.88 1490.68 164.169 1518.95 170.54 C 1589.44 186.426 1633.72 195.173 1697.36 232.291 C 1708.78 238.956 1720.8 245.203 1731.31 253.266 C 1803.02 308.279 1837.47 413.667 1848.71 499.96 C 1856.85 562.476 1848.21 624.568 1833.36 685.32 C 1822.57 729.523 1808.08 774.553 1787.02 815.015 C 1763.7 859.829 1733.08 900.292 1700.24 938.453 C 1575.28 1083.66 1409.27 1189.12 1235.79 1267.4 C 1216.91 1275.92 1197 1282.68 1177.74 1290.33 C 1155.74 1299.07 1134.13 1308.66 1112.17 1317.46 C 1064.3 1336.33 1015.49 1352.76 965.946 1366.69 C 956.511 1369.29 913.663 1376.69 909.34 1379.62 C 906.742 1381.38 900.475 1400.24 898.636 1404.36 C 892.042 1419.12 884.353 1433.38 876.567 1447.53 C 836.959 1519.55 795.208 1589.7 744.941 1654.91 C 682.922 1736.51 600.948 1800.77 506.907 1841.51 C 487.618 1849.69 467.498 1855.73 447.53 1861.96 C 423.795 1869.36 400.495 1876.59 376.248 1882.25 C 338.026 1891.18 297.701 1897.04 258.773 1902.07 C 246.518 1903.96 234.168 1904.02 221.804 1903.73 C 285.199 1889.24 346.343 1868.67 404.647 1839.57 C 494.56 1794.68 632.218 1709.71 647.962 1601.05 C 652.93 1566.77 644.693 1532.53 635.55 1499.75 C 633.068 1490.85 630.733 1481.63 627.365 1473.02 C 625.178 1467.43 621.33 1461.34 619.992 1455.59 C 619.473 1453.36 619.755 1452.4 620.447 1450.32 C 621.984 1449.31 623.203 1448.44 624.541 1447.15 C 619.369 1437.43 590.048 1432.55 580.081 1429.92 C 561.342 1424.95 543.512 1417.41 525.335 1410.73 C 485.711 1396.17 445.187 1380.77 408.036 1360.52 C 386.012 1348.51 365.375 1334.65 344.76 1320.4 C 328.368 1309.07 311.953 1297.91 297.116 1284.55 C 236.194 1229.7 196.493 1165.2 174.264 1086.31 C 167.425 1062.04 161.843 1036.78 160.52 1011.56 C 158.867 980.017 159.545 945.43 165.426 914.268 C 168.539 897.774 173.91 881.068 178.228 864.795 C 185.091 838.933 191.969 811.586 201.933 786.782 C 211.757 762.325 224.811 740.181 238.313 717.63 C 252.556 693.843 266.828 670.05 283.134 647.599 C 302.062 621.539 323.364 597.347 344.894 573.44 C 372.193 543.128 402.342 515.197 432.746 488.059 C 459.097 464.539 485.609 441.433 514.29 420.741 C 556.197 390.508 600.617 365.514 645.817 340.707 C 675.19 324.587 704.628 308.008 734.909 293.633 C 783.971 270.342 834.349 250.807 885.265 232.074 C 915.025 221.125 944.766 209.62 975.369 201.223 C 1013.32 190.81 1051.82 184.324 1090.37 176.709 C 1117.84 171.283 1145.3 164.79 1173.05 160.996 C 1222.17 154.279 1272.03 154.021 1321.46 151.46 z"/>
<path transform="translate(0,0)" fill="rgb(51,31,28)" d="M 1550.31 280.531 C 1550.98 280.612 1552.51 280.701 1553.27 281.054 C 1555.92 282.298 1560.72 289.957 1563.34 292.519 C 1572.22 301.175 1582.09 308.826 1591.17 317.283 C 1600.65 326.121 1634.38 360.067 1638.67 370.981 C 1638.07 373.881 1637.33 375.038 1635.1 377.02 C 1618.78 391.473 1600.3 404.105 1583.54 418.184 C 1555.79 441.505 1529.28 466.394 1502.33 490.633 C 1498.41 494.158 1482.51 506.375 1480.97 508.788 C 1481.18 509.202 1481.36 509.627 1481.59 510.031 C 1483.88 514.13 1485.05 514.641 1489.08 512.804 C 1498.45 508.532 1507.43 503.436 1516.83 499.222 C 1541.46 488.185 1669.96 433.612 1684.43 438.301 C 1694.28 455.083 1709.21 534.579 1710.69 556.825 C 1710.93 560.49 1711.1 563.963 1708.59 566.915 C 1708.23 566.874 1707.87 566.759 1707.51 566.793 C 1691.11 568.329 1675.27 565.785 1658.81 564.518 C 1628.07 562.151 1597.44 559.594 1566.73 556.652 C 1546.6 554.722 1526.37 554.734 1506.28 552.68 C 1523.26 593.788 1538.16 636.911 1539.27 681.863 C 1539.71 700.109 1540.05 719.022 1537.66 737.14 C 1526.99 817.802 1482.54 894.877 1426.76 952.873 C 1395.22 985.658 1357.35 1015.02 1319.18 1039.66 C 1306.51 1047.84 1293.11 1055.07 1280.26 1063.01 C 1266.43 1071.55 1252.93 1080.8 1238.92 1089.05 C 1228.12 1095.41 1216.76 1100.81 1205.9 1107.06 C 1193.87 1113.99 1182.18 1121.46 1169.73 1127.65 C 1149.97 1137.48 1129.18 1145.83 1108.82 1154.32 C 990.102 1203.87 856.425 1241.19 727.25 1243.36 C 706.853 1243.68 685.529 1242.45 665.232 1240.28 C 650.662 1238.72 636.403 1235 622.205 1231.51 C 565.929 1217.66 515.752 1194.45 478.843 1147.97 C 437.413 1095.8 421.607 1039.21 418.611 973.662 C 417.54 950.237 417.709 927.329 420.336 904.004 C 438.161 745.721 543.102 610.474 664.488 513.895 C 685.704 497.015 708.34 482.93 731.374 468.784 C 744.196 460.911 756.709 452.491 769.918 445.265 C 865.939 392.731 994.454 349.703 1103.46 341.958 C 1137.61 339.532 1173.07 341.301 1207.04 345.235 C 1268.24 352.321 1337 374.619 1387.29 410.719 C 1415.21 430.755 1439.33 455.75 1460.6 482.62 C 1475.1 437.852 1496.43 394.638 1515.4 351.656 C 1525.06 329.786 1532.61 306.046 1545.25 285.624 C 1546.57 283.493 1548.29 281.969 1550.31 280.531 z"/>
<path transform="translate(0,0)" fill="rgb(245,244,236)" d="M 547.789 660.717 C 560.256 636.586 615.427 574.233 639.309 559.895 C 655.898 573.732 672.826 586.139 687.929 601.748 C 708.979 623.501 727.263 645.779 745.917 669.529 C 760.427 688.001 774.748 706.409 787.392 726.232 C 839.546 807.992 878.444 900.304 909.041 992.1 C 921.174 1028.5 932.582 1065.37 939.713 1103.12 C 944.755 1129.96 947.188 1157.22 946.976 1184.52 C 932.481 1186.98 917.707 1192.21 903.248 1193.67 L 902.719 1191.7 L 904.376 1187.66 C 911.811 1169.91 913.069 1143.76 913.382 1124.49 C 913.18 1119.44 912.867 1114.71 911.079 1109.92 L 908.666 1108.84 C 906.24 1112.19 906.093 1116 906.165 1119.97 C 906.185 1122.24 906.218 1124.5 906.266 1126.76 C 904.707 1150.93 901.508 1173.94 891.916 1196.36 C 880.048 1199.83 867.436 1201.94 855.277 1204.17 C 864.411 1185.72 871.475 1164.72 871.045 1143.86 C 870.961 1139.78 871.009 1134.12 867.883 1131.14 L 865.697 1131.28 C 862.364 1135.15 862.642 1152.15 861.444 1158.13 C 858.163 1174.49 853.095 1191.18 846.001 1206.28 C 833.284 1207.49 820.701 1209.55 807.935 1210.33 C 809.446 1207.93 810.774 1205.41 811.906 1202.8 C 816.916 1191.39 829.978 1155.38 825.517 1143.76 L 823.665 1143.04 C 821.24 1145.14 813.238 1176.48 811.038 1182.78 C 807.621 1192.56 803.326 1201.89 798.923 1211.26 C 787.637 1213.01 776.439 1213.94 765.055 1214.67 C 771.528 1199.57 778.621 1184.39 780.734 1167.94 C 785.136 1133.67 759.624 1057.02 748.291 1021.56 C 746.772 1016.81 745.277 1007.87 740.82 1005.57 C 735.914 1008.66 731.651 1013.69 727.461 1017.72 C 715.803 1028.92 704.564 1036.47 689.457 1042.41 C 673.027 1048.88 655.598 1052.48 638.054 1054.08 C 634.679 1054.38 629.537 1054.31 627.061 1056.58 C 626.896 1059.2 626.936 1061.45 627.543 1064.02 C 629.485 1072.26 633.54 1079.97 635.934 1088.09 C 640.286 1102.83 643.803 1117.83 648.217 1132.6 C 651.535 1143.7 665.461 1202.89 660.732 1211.64 C 658.012 1212.67 656.63 1212.53 653.838 1212.16 C 651.845 1208.38 652.42 1184.36 651.878 1178.28 C 650.288 1160.46 646.289 1145.28 640.545 1128.49 C 627.571 1090.56 615.7 1052.4 600.858 1015.1 C 580.135 963.027 549.174 903.081 519.762 854.858 C 512.078 842.259 504.23 829.584 495.675 817.55 C 488.339 807.229 480.074 797.244 473.201 786.641 C 471.759 784.418 471.892 784.469 472.479 781.967 L 474.03 781.364 C 474.379 781.534 474.745 781.67 475.076 781.873 C 481.296 785.687 490.613 799.419 495.672 805.509 C 505.808 817.714 516.236 829.78 525.359 842.771 C 552.532 881.465 583.931 942.473 595.788 987.804 C 606.99 984.658 618.2 981.581 628.363 975.746 C 646.841 964.95 660.398 947.393 666.167 926.785 C 680.231 874.561 641.578 825.957 613.15 786.115 C 596.709 763.073 579.836 740.099 561.832 718.254 C 550.944 705.043 535.972 691.579 527.706 676.692 C 527.513 676.344 527.333 675.988 527.147 675.636 C 544.697 687.381 574.256 725.598 588.09 743.485 C 621.813 787.087 682.697 857.812 674.825 916.017 C 670.804 945.754 649.469 972.199 622.684 985.021 C 615.337 988.539 606.041 989.788 599.59 994.734 C 598.727 997.686 599.333 998.593 600.211 1001.48 C 602.027 1003.25 603.052 1003.71 605.644 1003.77 C 623.026 1004.14 648.345 986.966 660.629 975.703 C 679.252 958.627 691.122 933.412 692.006 908.076 C 694.112 847.704 645.449 773.756 608.221 728.061 C 589.145 704.647 568.26 682.875 547.789 660.717 z"/>
<path transform="translate(0,0)" fill="rgb(51,31,28)" d="M 730.584 984.443 C 732.233 984.563 733.616 984.729 735.123 985.469 C 738.689 987.221 740.99 988.482 742.176 992.343 C 741.734 994.888 740.956 996.68 739.406 998.717 C 735.357 1004.04 729.906 1008.78 724.984 1013.27 C 696.91 1038.89 667.743 1045.41 631.107 1050.12 C 628.443 1050.17 625.896 1050.44 623.662 1048.72 C 621.398 1046.97 619.607 1044.76 619.065 1041.93 C 620.108 1039.45 620.887 1038.37 623.542 1037.24 C 629.966 1034.51 638.449 1033.88 645.341 1032.48 C 664.778 1028.54 687.022 1022.93 703.729 1012.06 C 714.704 1004.91 722.595 994.605 730.584 984.443 z"/>
<path transform="translate(0,0)" fill="rgb(245,244,236)" d="M 863.348 420.031 C 898.144 446.747 927.744 475.809 957.289 508.193 C 1043.51 602.699 1102.01 702.856 1146.38 822.459 C 1149.79 831.652 1153.81 840.638 1157.01 849.903 C 1173.25 897.14 1184.85 945.846 1191.65 995.33 C 1195.63 1025.54 1196.15 1056.08 1194.81 1086.5 C 1183.18 1092.61 1159.67 1106.92 1148.46 1110.17 C 1148.84 1107.5 1149.25 1105.44 1150.29 1102.92 C 1156.62 1082.66 1152.31 1058.42 1147.77 1038.14 C 1145.83 1040.15 1145.04 1040.28 1142.32 1041.1 C 1145.29 1061.28 1147.87 1081.99 1143.34 1102.19 C 1141.98 1107.08 1139.82 1110.54 1137.02 1114.67 L 1112.65 1126.11 C 1116.3 1111.6 1118.03 1095.36 1116.14 1080.48 C 1115.86 1084.21 1116.23 1086.34 1113.97 1089.39 C 1111.97 1089.15 1112.42 1089.61 1111.31 1088.06 C 1109.92 1086.12 1109.75 1084.69 1109.32 1082.41 C 1109.67 1093.71 1109.77 1111.96 1105.97 1122.47 C 1101.54 1134.68 1082.52 1138.68 1071.63 1143.36 C 1079.44 1119.07 1075.53 1095.32 1070.43 1070.93 L 1069.33 1071.53 L 1069.89 1069.04 L 1070.36 1071 L 1069.77 1069.07 C 1067.25 1078.6 1069.28 1089.27 1069.7 1099 C 1070.4 1115.19 1068.44 1130.05 1063.67 1145.48 L 1052.41 1149.22 C 1057.65 1135.84 1059.93 1121.83 1060.85 1107.52 C 1063.59 1064.75 1055.67 1007.3 1043.46 966.229 C 1038.87 950.794 1032.72 935.813 1027.24 920.68 C 1021.99 906.183 1017.16 891.597 1011.15 877.389 C 1006.64 866.701 1003.6 851.992 995.922 843.279 C 990.847 841.462 983.061 850.873 979.309 854.208 C 967.112 865.048 933.353 883.373 917.663 887.016 C 911.145 888.53 902.606 886.634 895.701 887.042 C 893.45 888.433 893.407 888.627 892.373 891.082 C 893.364 896.427 896.192 898.724 900.415 901.942 L 901.488 902.746 C 905.17 902.822 908.926 903.049 912.598 902.686 C 938.306 900.145 979.259 875.995 995.514 856.05 C 997.177 857.626 997.168 858.107 997.04 860.452 C 996.87 863.545 995.441 865.072 993.38 867.092 C 975.566 884.543 940.776 904.323 916.468 909.384 C 910.756 910.573 904.517 910.208 898.707 910.163 C 903.32 930.791 916.724 959.216 924.353 980.059 C 945.625 1038.18 968.503 1124.9 960.963 1186.5 C 957.658 1168.4 957.262 1149.29 955.403 1130.95 C 953.983 1116.95 951.203 1102.69 948.307 1088.92 C 936.309 1031.88 917.001 976.383 895.501 922.342 C 891.367 911.95 887.905 901.213 883.456 890.959 C 877.947 878.262 871.624 865.839 865.903 853.219 C 850.561 819.377 835.188 785.811 816.321 753.734 C 796.2 719.524 773.725 688.277 749.631 656.823 C 728.96 629.655 706.199 604.143 681.558 580.518 C 674.93 574.121 651.983 558.58 648.987 552.187 L 650.716 550.433 C 652.091 550.204 652.252 550.105 653.807 550.226 C 660.763 550.767 672.258 562.118 677.576 566.432 C 734.265 612.424 787.892 680.578 824.334 743.857 C 833.777 760.582 842.58 777.66 850.722 795.055 C 856.511 807.625 861.348 823.465 869.371 834.516 C 870.199 835.655 869.884 835.406 871.44 835.516 C 881.688 836.242 900.185 821.751 907.848 815.608 C 924.189 799.831 937.439 780.024 937.753 756.449 C 937.979 739.448 931.859 721.658 924.173 706.713 C 909.989 679.136 889.006 654.91 869.459 631.02 C 847.087 603.678 824.509 576.359 799.46 551.403 C 786.863 538.853 771.857 526.674 761.904 511.964 C 776.019 524.586 790.291 537.107 803.7 550.485 C 829.214 575.941 852.234 603.726 874.808 631.746 C 902.46 666.07 938.491 706.243 941.121 752.506 C 942.327 773.712 934.071 795.545 919.855 811.203 C 915.615 815.872 910.674 820.555 905.362 823.97 C 901.233 827.678 896.205 831.232 891.121 833.533 C 885.775 835.953 869.757 838.837 867.502 843.772 C 868.102 845.135 868.003 845.926 869.542 846.459 C 876.531 848.877 894.504 842.796 900.764 839.283 C 926.107 825.061 948.123 801.485 955.061 772.787 C 963.266 738.85 949.709 703.015 932.003 674.399 C 919.063 653.485 901.977 635.05 886.364 616.102 C 857.405 580.959 829.711 545.885 796.704 514.244 C 782.693 500.813 767.552 488.714 752.572 476.4 C 785.942 452.207 825.467 435.811 863.348 420.031 z"/>
<path transform="translate(0,0)" fill="rgb(28,12,9)" d="M 1109.32 1082.41 C 1109.2 1075.39 1105.53 1060.87 1108.38 1055.21 C 1110.65 1055.31 1110.04 1054.85 1111.48 1056.32 C 1116.37 1061.28 1115.96 1073.77 1116.14 1080.48 C 1115.86 1084.21 1116.23 1086.34 1113.97 1089.39 C 1111.97 1089.15 1112.42 1089.61 1111.31 1088.06 C 1109.92 1086.12 1109.75 1084.69 1109.32 1082.41 z"/>
<path transform="translate(0,0)" fill="rgb(28,12,9)" d="M 1142.32 1041.1 C 1142 1039.84 1141.72 1038.57 1141.45 1037.29 C 1140.86 1034.28 1141.1 1032.94 1142.84 1030.43 L 1144.62 1030.44 C 1146.98 1032.74 1147.19 1035.05 1147.77 1038.14 C 1145.83 1040.15 1145.04 1040.28 1142.32 1041.1 z"/>
<path transform="translate(0,0)" fill="rgb(245,244,236)" d="M 989.906 378.965 C 1032.97 367.366 1115.24 355.256 1158.73 359.445 C 1259.19 439.257 1313.42 534.409 1360.04 652.184 C 1375.67 691.677 1390.71 732.715 1400.49 774.097 C 1407.65 803.804 1413.43 833.826 1417.82 864.067 C 1420.55 882.132 1421.88 901.539 1426.15 919.235 C 1415.33 931.102 1404.68 943.233 1392.92 954.178 C 1393.11 935.867 1394.29 874.231 1385.65 861.881 C 1383.17 861.072 1383.26 861.081 1380.86 862.116 C 1378.2 868.036 1383.41 892.222 1383.81 900.192 C 1384.89 921.292 1384.82 944.211 1380.55 964.964 C 1374.85 971.462 1349.19 995.266 1341.8 996.481 L 1340.88 996.005 C 1346.84 974.878 1350.55 916.164 1342.6 895.805 L 1339.88 895.825 C 1335.99 908.35 1338.4 926.7 1337.74 940.282 C 1336.98 956.746 1335.58 973.173 1333.54 989.528 C 1333 994.73 1332.64 1000.01 1331.61 1005.14 C 1319.33 1013.02 1307.63 1022.3 1294.85 1029.28 C 1309.44 984.569 1305.31 915.85 1294.84 869.752 C 1290.99 852.834 1284.95 836.709 1279.32 820.345 C 1269.25 791.054 1259.23 763.115 1245.18 735.419 C 1243.26 731.643 1241.32 727.884 1239.34 724.142 C 1220.12 743.557 1203.2 762.264 1176.69 771.61 C 1168.54 774.483 1160.14 776.268 1151.92 778.844 C 1175.29 837.732 1197.9 898.413 1207.83 961.289 C 1211.21 982.676 1212.77 1004.24 1214.01 1025.84 C 1214.78 1039.42 1213 1051.47 1212.37 1064.87 C 1212.21 1068.33 1213.25 1071.54 1211.84 1074.87 C 1211.11 1076.62 1210.57 1077.63 1209.21 1078.98 L 1208.14 1078.3 C 1208.56 1066.35 1209.44 1054.18 1208.91 1042.23 C 1201.07 863.567 1091.3 633.018 969.787 502.739 C 946.546 477.82 923.058 453.283 896.774 431.539 C 891.965 427.561 878.568 419.904 878.038 413.991 C 880.094 412.841 881.251 412.73 883.577 413.345 C 891.998 415.572 908.281 433.119 915.447 439.362 C 994.753 507.076 1059.71 589.975 1106.48 683.178 C 1110.71 691.601 1114.54 700.246 1118.99 708.553 L 1120.43 708.921 L 1120.94 708.518 C 1121.32 708.576 1121.71 708.637 1122.09 708.69 C 1132.96 710.186 1144.29 703.833 1152.69 697.307 C 1165.42 687.412 1174.2 674.271 1176.05 657.963 C 1180.94 614.792 1148.52 570.985 1122.84 539.235 C 1100.05 511.316 1075.56 484.823 1049.52 459.908 C 1035.4 446.382 1009.51 427.486 999.198 412.454 C 1010.09 418.553 1022.56 432.118 1032.21 440.668 C 1082.25 485.006 1160.88 561.273 1179.43 625.836 C 1184.85 644.698 1186.65 664.093 1176.71 681.847 C 1168.14 697.154 1152.19 708.278 1135.4 712.813 C 1131.25 713.934 1127.09 714.67 1122.87 715.461 L 1122.24 717.083 C 1123.09 718.671 1123.32 718.763 1125.02 719.262 C 1131.98 721.301 1142.65 719.958 1149.13 717.011 C 1168.08 708.401 1185.62 694.498 1193.16 674.44 C 1203.07 648.072 1193.76 617.657 1182.34 593.32 C 1172.26 571.92 1160.16 551.531 1146.2 532.435 C 1107.73 480.123 1042.25 416.725 989.906 378.965 z"/>
<path transform="translate(0,0)" fill="rgb(51,31,28)" d="M 1225.07 704.838 C 1231.49 706.667 1233.07 710.102 1236.15 715.542 C 1217.1 744.064 1190.15 764.018 1156.51 771.166 C 1154.34 771.123 1151.68 771.561 1149.83 770.364 C 1146.95 768.496 1145.5 766.714 1144.7 763.389 C 1145.01 762.46 1145.1 761.417 1145.64 760.6 C 1148.19 756.776 1171.03 751.002 1176.7 747.849 C 1199.59 735.133 1206.96 721.101 1225.07 704.838 z"/>
<path transform="translate(0,0)" fill="rgb(245,244,236)" d="M 466.391 797.871 C 477.628 807.622 486.172 823.384 494.494 835.79 C 552.896 922.849 592.355 1011.5 624.161 1111.15 C 631.883 1135.35 640.391 1156.33 642.364 1181.99 C 643.011 1191.31 643.289 1200.65 643.198 1209.99 C 636.932 1208.86 626.809 1208.09 621.843 1203.82 C 622.528 1205.74 622.261 1205.56 621.633 1207.35 C 620.799 1207.67 619.998 1208.04 619.077 1208.06 C 616.834 1208.12 614.936 1207.24 613.186 1205.96 L 613.035 1204.01 C 608.415 1202.82 598.834 1200.79 595.689 1197.29 C 593.827 1196.83 592.232 1196.11 590.461 1195.37 C 583.049 1193.67 576.042 1189.82 568.984 1186.99 C 569.607 1179.58 573.008 1162.45 569.498 1156.08 L 567.214 1156 C 562.724 1161.37 563.844 1176.47 563.014 1183.55 C 509.614 1154.1 469.972 1104.8 452.683 1046.32 C 435.568 987.298 435.632 919.312 448.783 859.39 C 453.37 838.492 460.095 818.288 466.391 797.871 z"/>
<path transform="translate(0,0)" fill="rgb(28,12,9)" d="M 613.035 1204.01 C 617.041 1196.84 620.144 1189.66 622.665 1181.83 C 624.308 1176.73 625.595 1169.99 628.182 1165.38 C 629.209 1163.54 629.429 1163.44 631.457 1162.69 C 634.151 1166.26 633.826 1170.19 633.173 1174.48 C 631.611 1184.76 626.443 1194.63 621.843 1203.82 C 622.528 1205.74 622.261 1205.56 621.633 1207.35 C 620.799 1207.67 619.998 1208.04 619.077 1208.06 C 616.834 1208.12 614.936 1207.24 613.186 1205.96 L 613.035 1204.01 z"/>
<path transform="translate(0,0)" fill="rgb(28,12,9)" d="M 596.845 1166.56 L 603.323 1166.42 C 601.75 1176.72 598.603 1187.29 595.689 1197.29 C 593.827 1196.83 592.232 1196.11 590.461 1195.37 C 592.846 1185.82 594.975 1176.22 596.845 1166.56 z"/>
<path transform="translate(0,0)" fill="rgb(28,12,9)" d="M 596.845 1166.56 C 597.807 1161.12 598.511 1150.7 603.165 1147.11 L 604.418 1148.55 C 605.622 1154.42 604.195 1160.57 603.323 1166.42 L 596.845 1166.56 z"/>
<path transform="translate(0,0)" fill="rgb(245,244,236)" d="M 1172.1 359.936 C 1175.08 360.512 1178.36 361.009 1181.02 362.534 C 1199.47 373.107 1230.3 405.971 1244.82 422.729 C 1266.57 447.915 1289.33 472.582 1308.04 500.198 C 1319.41 516.986 1329.3 535.543 1338.66 553.511 C 1345.26 566.184 1350.87 579.523 1356.53 592.639 C 1359.18 598.793 1361.52 605.809 1365 611.514 C 1376.52 607.501 1384.89 596.607 1390.14 585.945 C 1398.71 568.567 1398.63 549.104 1392.3 531.076 C 1375.49 483.196 1324.27 436.182 1287.61 402.398 C 1277.62 393.199 1263.14 383.868 1255.4 372.895 C 1272.08 383.53 1286.11 397.051 1300.63 410.352 C 1335.05 441.872 1391.33 495.138 1401.6 541.79 C 1405.42 559.168 1402.92 580.084 1392.91 595.074 C 1385.46 606.234 1375.91 608.376 1365.56 615.051 C 1366.56 616.703 1367.59 618.754 1369.52 619.31 C 1374.37 620.702 1380.32 617.815 1384.4 615.388 C 1398.18 607.271 1408.14 593.968 1412.05 578.453 C 1428.28 513.236 1370.9 455.372 1328.59 414.075 C 1318.59 404.316 1304.39 394.227 1297.13 382.298 C 1296.93 381.97 1296.74 381.635 1296.54 381.304 C 1379.52 405.183 1441.2 467.18 1482.69 540.804 C 1503.79 578.245 1514.54 617.774 1518.6 660.396 C 1519.56 670.371 1520.73 680.61 1520.52 690.632 C 1519.88 722.297 1513.23 755.671 1504.68 786.178 C 1500.9 743.663 1487.32 701.875 1469.58 663.272 C 1465.19 653.729 1460.96 643.75 1454.64 635.31 C 1444.74 643.654 1437.88 654.962 1427.92 663.35 C 1418.03 671.687 1405.47 676.493 1395.81 685.021 C 1401.6 696.893 1405.22 710.08 1409 722.704 C 1423.12 769.927 1432.29 818.835 1439.51 867.563 C 1440.73 875.769 1444.3 888.571 1442.8 896.566 C 1442.32 899.127 1441.29 900.956 1439.11 902.364 C 1434.62 898.543 1431.09 861.681 1429.88 854.005 C 1423.91 816.223 1415.95 777.924 1404.48 741.427 C 1378.03 657.331 1342.21 566.995 1293.18 493.48 C 1276.89 469.049 1258.56 446.694 1239.75 424.212 C 1219.85 400.345 1195.75 379.947 1172.1 359.936 z"/>
<path transform="translate(0,0)" fill="rgb(51,31,28)" d="M 1442.85 617.562 C 1444.76 617.877 1446.9 618.539 1448.42 619.853 C 1450.3 621.486 1451.18 622.795 1450.77 625.38 C 1448.63 639.212 1409.68 667.205 1397.25 673.953 C 1395.28 674.191 1394.15 674.223 1392.27 673.565 C 1390.38 671.177 1389.1 669.643 1388.66 666.505 C 1390.24 659.947 1398.48 657.832 1403.63 654.372 C 1418.72 644.221 1429.65 629.692 1442.85 617.562 z"/>
<path transform="translate(0,0)" fill="rgb(79,174,164)" d="M 1674.89 454.051 C 1682.79 464.716 1689.5 529.981 1692.43 547.687 C 1675.25 546.726 1658.36 543.586 1641.25 541.904 C 1602.12 538.25 1562.93 535.299 1523.69 533.053 C 1514.89 532.703 1506.64 534.547 1498.11 534.289 C 1494.66 532.206 1493.58 529.152 1491.65 525.718 C 1530.05 512.9 1567.79 496.815 1605.31 481.602 C 1628.43 472.229 1651.81 463.543 1674.89 454.051 z"/>
<path transform="translate(0,0)" fill="rgb(79,174,164)" d="M 1552.97 301.871 C 1565.18 312.609 1576.68 324.143 1587.37 336.399 C 1596.66 346.979 1605.25 358.043 1615.88 367.344 C 1573.6 394.954 1537.78 431.029 1501.96 466.314 C 1490.26 476.989 1479.65 489.033 1467.71 499.33 C 1495.63 433.575 1519.78 365.181 1552.97 301.871 z"/>
<path transform="translate(0,0)" fill="rgb(245,244,236)" d="M 1262.2 1281.17 C 1290.43 1295.71 1323.15 1300.97 1354.06 1306.9 C 1337.45 1315.36 1320.76 1324.45 1303.93 1332.38 C 1297.66 1331.42 1291.42 1330.49 1285.25 1328.98 L 1284.63 1332 L 1286.62 1333.61 L 1283.81 1333.78 C 1286.31 1334.6 1289.49 1335.19 1291.5 1336.88 C 1282.06 1343.51 1241.51 1358.68 1230.6 1356.71 C 1228.53 1356.34 1226.57 1355.75 1224.6 1355.04 C 1206.22 1348.14 1186.96 1343.61 1168.4 1337.04 C 1162 1334.53 1155.9 1331.87 1149.84 1328.63 C 1161.4 1322.27 1179.06 1315.24 1191.79 1311.55 C 1196.89 1310.07 1198.25 1310.88 1202.68 1313.38 L 1204.11 1308.26 L 1203.42 1307.21 C 1210.96 1302.6 1220.48 1299.97 1228.65 1296.5 C 1239.95 1291.7 1251.08 1286.37 1262.2 1281.17 z"/>
<path transform="translate(0,0)" fill="rgb(245,244,236)" d="M 1149.84 1328.63 C 1161.4 1322.27 1179.06 1315.24 1191.79 1311.55 C 1196.89 1310.07 1198.25 1310.88 1202.68 1313.38 C 1217.21 1318.27 1269.96 1333.12 1283.81 1333.78 C 1286.31 1334.6 1289.49 1335.19 1291.5 1336.88 C 1282.06 1343.51 1241.51 1358.68 1230.6 1356.71 C 1228.53 1356.34 1226.57 1355.75 1224.6 1355.04 C 1206.22 1348.14 1186.96 1343.61 1168.4 1337.04 C 1162 1334.53 1155.9 1331.87 1149.84 1328.63 z"/>
<path transform="translate(0,0)" fill="rgb(28,12,9)" d="M 1204.11 1308.26 C 1230.88 1316.45 1258 1322.64 1285.25 1328.98 L 1284.63 1332 L 1286.62 1333.61 L 1283.81 1333.78 C 1269.96 1333.12 1217.21 1318.27 1202.68 1313.38 L 1204.11 1308.26 z"/>
<path transform="translate(0,0)" fill="rgb(245,244,236)" d="M 1619.06 1062.18 L 1613.34 1060.59 L 1613.25 1060.03 C 1618.22 1055.53 1648.96 1026.08 1650.9 1025.54 C 1651.69 1025.32 1652.55 1025.47 1653.37 1025.44 C 1661.5 1030.97 1713.35 1045.97 1722.6 1046.79 C 1724.64 1047.52 1728.2 1048.11 1729.18 1050.01 C 1728.86 1050.11 1728.51 1050.15 1728.2 1050.3 C 1727.92 1050.44 1726.69 1051.39 1726.41 1051.61 L 1726.94 1052.34 C 1716.01 1062.42 1704.99 1072.4 1693.88 1082.3 L 1688.9 1084.37 C 1686.78 1091.41 1663.69 1107.66 1657.3 1113.91 C 1651.26 1112.81 1645.18 1111.47 1639.04 1111.25 C 1619.32 1107.41 1599.54 1104.56 1579.86 1100.31 C 1575.97 1099.2 1571.79 1098.58 1567.82 1097.74 C 1581.38 1085.52 1596.23 1074.61 1610.06 1062.63 L 1619.06 1062.18 z"/>
<path transform="translate(0,0)" fill="rgb(245,244,236)" d="M 1619.06 1062.18 C 1623.16 1062.55 1626.77 1063.4 1630.71 1064.61 C 1632.2 1066.33 1633.72 1067.99 1635.31 1069.62 L 1634.3 1070.54 C 1649.8 1075.54 1673.07 1082.52 1688.9 1084.37 C 1686.78 1091.41 1663.69 1107.66 1657.3 1113.91 C 1651.26 1112.81 1645.18 1111.47 1639.04 1111.25 C 1619.32 1107.41 1599.54 1104.56 1579.86 1100.31 C 1575.97 1099.2 1571.79 1098.58 1567.82 1097.74 C 1581.38 1085.52 1596.23 1074.61 1610.06 1062.63 L 1619.06 1062.18 z"/>
<path transform="translate(0,0)" fill="rgb(28,12,9)" d="M 1619.06 1062.18 C 1623.16 1062.55 1626.77 1063.4 1630.71 1064.61 C 1632.2 1066.33 1633.72 1067.99 1635.31 1069.62 L 1634.3 1070.54 C 1625.99 1068.66 1617.57 1066.77 1610.06 1062.63 L 1619.06 1062.18 z"/>
<path transform="translate(0,0)" fill="rgb(28,12,9)" d="M 1630.71 1064.61 C 1645.51 1068.41 1682.12 1075.79 1693.88 1082.3 L 1688.9 1084.37 C 1673.07 1082.52 1649.8 1075.54 1634.3 1070.54 L 1635.31 1069.62 C 1633.72 1067.99 1632.2 1066.33 1630.71 1064.61 z"/>
<path transform="translate(0,0)" fill="rgb(245,244,236)" d="M 1687.99 988.434 C 1688.99 983.611 1712.63 957.594 1717.6 954.013 C 1719.07 952.95 1720.07 953.628 1721.75 953.917 C 1739.17 961.036 1759.18 968.757 1777.83 971.417 C 1783.9 973.588 1790.17 975.056 1796.41 976.632 C 1787.57 989.198 1777.54 1001.6 1765.59 1011.33 C 1763.49 1010.76 1761.41 1010.17 1759.33 1009.56 L 1760.25 1013.06 L 1762.45 1014.45 C 1760.29 1020.36 1739.35 1041 1733.66 1044.42 L 1728.07 1043.44 L 1728.78 1045.11 L 1731.85 1046.51 C 1728.67 1046.28 1725.67 1045.74 1722.6 1046.79 C 1713.35 1045.97 1661.5 1030.97 1653.37 1025.44 L 1654.95 1022.28 L 1655.09 1020.8 C 1661.14 1013.12 1676.3 996.663 1684.11 991.557 L 1686.23 992.375 L 1686.21 990.017 L 1687.99 988.434 z"/>
<path transform="translate(0,0)" fill="rgb(245,244,236)" d="M 1687.99 988.434 C 1688.99 983.611 1712.63 957.594 1717.6 954.013 C 1719.07 952.95 1720.07 953.628 1721.75 953.917 C 1739.17 961.036 1759.18 968.757 1777.83 971.417 C 1783.9 973.588 1790.17 975.056 1796.41 976.632 C 1787.57 989.198 1777.54 1001.6 1765.59 1011.33 C 1763.49 1010.76 1761.41 1010.17 1759.33 1009.56 C 1742.73 1007.32 1726.54 1001.98 1710.79 996.452 C 1703.07 994.28 1695.52 991.205 1687.99 988.434 z"/>
<path transform="translate(0,0)" fill="rgb(28,12,9)" d="M 1654.95 1022.28 C 1670.07 1026.96 1685.26 1031.41 1700.53 1035.62 C 1709.52 1038.1 1719.41 1040.04 1728.07 1043.44 L 1728.78 1045.11 L 1731.85 1046.51 C 1728.67 1046.28 1725.67 1045.74 1722.6 1046.79 C 1713.35 1045.97 1661.5 1030.97 1653.37 1025.44 L 1654.95 1022.28 z"/>
<path transform="translate(0,0)" fill="rgb(28,12,9)" d="M 1710.79 996.452 C 1726.54 1001.98 1742.73 1007.32 1759.33 1009.56 L 1760.25 1013.06 C 1745.02 1013.66 1723.81 1007.75 1709.89 1001.48 L 1710.3 1000.26 L 1708.73 998.773 L 1710.79 996.452 z"/>
<path transform="translate(0,0)" fill="rgb(28,12,9)" d="M 1687.99 988.434 C 1695.52 991.205 1703.07 994.28 1710.79 996.452 L 1708.73 998.773 L 1710.3 1000.26 L 1709.89 1001.48 C 1701.92 999.594 1693.64 995.902 1686.23 992.375 L 1686.21 990.017 L 1687.99 988.434 z"/>
<path transform="translate(0,0)" fill="rgb(245,244,236)" d="M 1827.31 782.972 C 1846.44 794.112 1866.89 804.158 1887.8 811.53 L 1885.83 815.103 L 1888.87 816.215 C 1890.31 822.756 1882.33 839.004 1878.58 844.736 C 1878.2 845.323 1877.59 846.061 1877.18 846.585 L 1874.92 849.152 L 1875.81 850.935 C 1872.27 863.762 1863.49 876.561 1856.9 888.085 C 1833.26 880.015 1808.71 872.142 1786.53 860.501 C 1792.76 848.808 1798.48 833.596 1806.78 823.527 C 1807.3 822.281 1808.36 821.091 1809.14 819.989 C 1810.17 812.681 1819.45 792.73 1823.48 786.339 L 1825.36 786.12 L 1827.31 782.972 z"/>
<path transform="translate(0,0)" fill="rgb(245,244,236)" d="M 1827.31 782.972 C 1846.44 794.112 1866.89 804.158 1887.8 811.53 L 1885.83 815.103 L 1888.87 816.215 C 1890.31 822.756 1882.33 839.004 1878.58 844.736 C 1878.2 845.323 1877.59 846.061 1877.18 846.585 C 1865.61 841.592 1852.9 838.338 1841.02 834.014 C 1830.06 830.024 1819.75 824.791 1809.14 819.989 C 1810.17 812.681 1819.45 792.73 1823.48 786.339 L 1825.36 786.12 L 1827.31 782.972 z"/>
<path transform="translate(0,0)" fill="rgb(28,12,9)" d="M 1827.31 782.972 C 1846.44 794.112 1866.89 804.158 1887.8 811.53 L 1885.83 815.103 C 1870.11 813.113 1837.92 796.795 1825.36 786.12 L 1827.31 782.972 z"/>
<path transform="translate(0,0)" fill="rgb(28,12,9)" d="M 1809.14 819.989 C 1819.75 824.791 1830.06 830.024 1841.02 834.014 C 1852.9 838.338 1865.61 841.592 1877.18 846.585 L 1874.92 849.152 C 1858.7 849.186 1821.5 831.512 1806.78 823.527 C 1807.3 822.281 1808.36 821.091 1809.14 819.989 z"/>
<path transform="translate(0,0)" fill="rgb(245,244,236)" d="M 1146.63 1330.58 L 1149.84 1328.63 C 1155.9 1331.87 1162 1334.53 1168.4 1337.04 C 1186.96 1343.61 1206.22 1348.14 1224.6 1355.04 C 1225.45 1356.83 1226.51 1358.49 1226.63 1360.49 C 1223.28 1366.23 1195.19 1372.75 1187.36 1374.81 C 1181.3 1376.4 1177.44 1377.23 1171.3 1375.4 C 1170.73 1375.49 1170.17 1375.61 1169.59 1375.68 C 1167.47 1375.93 1166.84 1375.76 1165.01 1374.85 L 1164.38 1375.8 C 1166.38 1377.8 1168.87 1377.13 1169.29 1379.52 L 1168.98 1380.2 C 1157.05 1387.01 1128.19 1391.31 1113.44 1395.77 C 1108.77 1394.24 1104.05 1392.8 1099.47 1391.02 C 1085.07 1385.94 1070.94 1380.04 1056.78 1374.35 C 1053.56 1372.16 1050.93 1369.7 1048.15 1367 C 1063.23 1361.91 1077.87 1356.46 1092.38 1349.89 C 1095.82 1352.32 1099.34 1354.46 1102.98 1356.55 C 1102.59 1354.42 1100.48 1352.69 1099.06 1351.09 L 1098.05 1350.81 L 1098.99 1350.79 C 1101.17 1352.01 1103.17 1353.36 1105.75 1353.49 C 1106.18 1353.51 1106.61 1353.44 1107.04 1353.42 L 1098.54 1347.38 C 1114.58 1342.92 1130.45 1333.49 1146.63 1330.58 z"/>
<path transform="translate(0,0)" fill="rgb(245,244,236)" d="M 1102.98 1356.55 C 1102.59 1354.42 1100.48 1352.69 1099.06 1351.09 L 1098.05 1350.81 L 1098.99 1350.79 C 1101.17 1352.01 1103.17 1353.36 1105.75 1353.49 C 1106.18 1353.51 1106.61 1353.44 1107.04 1353.42 C 1122 1360.18 1137.51 1365.12 1153.22 1369.84 C 1153.66 1372.53 1154.02 1373.97 1155.57 1376.3 C 1160.02 1377.86 1164.4 1379.13 1168.98 1380.2 C 1157.05 1387.01 1128.19 1391.31 1113.44 1395.77 C 1108.77 1394.24 1104.05 1392.8 1099.47 1391.02 C 1085.07 1385.94 1070.94 1380.04 1056.78 1374.35 C 1053.56 1372.16 1050.93 1369.7 1048.15 1367 C 1063.23 1361.91 1077.87 1356.46 1092.38 1349.89 C 1095.82 1352.32 1099.34 1354.46 1102.98 1356.55 z"/>
<path transform="translate(0,0)" fill="rgb(28,12,9)" d="M 1102.98 1356.55 C 1102.59 1354.42 1100.48 1352.69 1099.06 1351.09 L 1098.05 1350.81 L 1098.99 1350.79 C 1101.17 1352.01 1103.17 1353.36 1105.75 1353.49 C 1106.18 1353.51 1106.61 1353.44 1107.04 1353.42 C 1122 1360.18 1137.51 1365.12 1153.22 1369.84 C 1153.66 1372.53 1154.02 1373.97 1155.57 1376.3 C 1138.55 1373.1 1117.25 1366.7 1102.98 1356.55 z"/>
<path transform="translate(0,0)" fill="rgb(28,12,9)" d="M 1146.63 1330.58 L 1149.84 1328.63 C 1155.9 1331.87 1162 1334.53 1168.4 1337.04 C 1186.96 1343.61 1206.22 1348.14 1224.6 1355.04 C 1225.45 1356.83 1226.51 1358.49 1226.63 1360.49 C 1207.79 1354.65 1187.95 1350.11 1169.78 1342.46 C 1161.14 1339.96 1153.67 1336.17 1146.63 1330.58 z"/>
<path transform="translate(0,0)" fill="rgb(28,12,9)" d="M 1153.22 1369.84 C 1159.19 1371.62 1165.51 1373.13 1171.3 1375.4 C 1170.73 1375.49 1170.17 1375.61 1169.59 1375.68 C 1167.47 1375.93 1166.84 1375.76 1165.01 1374.85 L 1164.38 1375.8 C 1166.38 1377.8 1168.87 1377.13 1169.29 1379.52 L 1168.98 1380.2 C 1164.4 1379.13 1160.02 1377.86 1155.57 1376.3 C 1154.02 1373.97 1153.66 1372.53 1153.22 1369.84 z"/>
<path transform="translate(0,0)" fill="rgb(245,244,236)" d="M 1847.55 711.004 C 1859.73 715.535 1871.37 721.271 1883.47 725.976 C 1893.23 729.772 1904.11 732.527 1913.46 737.144 C 1911.77 750.295 1906.08 762.305 1904.13 775.021 C 1903.45 777.982 1903.61 777.878 1901.09 779.561 C 1902.85 784.372 1896.19 801.177 1893.64 806.364 C 1892.37 808.943 1891.72 810.537 1889.02 811.674 L 1887.8 811.53 C 1866.89 804.158 1846.44 794.112 1827.31 782.972 L 1826.04 782.003 C 1826.06 781.707 1826.08 781.41 1826.11 781.114 C 1826.75 774.799 1832.23 753.858 1837.15 749.872 L 1838.2 748.663 C 1844.79 751.29 1851.16 755.814 1857.32 759.397 C 1866.42 764.693 1878.33 770.583 1888.27 773.682 C 1886.1 771.336 1853.63 755.541 1847.41 752.118 C 1845.43 751.029 1841.59 749.559 1840.07 747.985 C 1839.69 747.598 1839.47 747.089 1839.17 746.641 C 1838.37 736.287 1844.06 720.98 1847.55 711.004 z"/>
<path transform="translate(0,0)" fill="rgb(245,244,236)" d="M 1837.15 749.872 C 1857.59 762.421 1877.93 772.913 1901.09 779.561 C 1902.85 784.372 1896.19 801.177 1893.64 806.364 C 1892.37 808.943 1891.72 810.537 1889.02 811.674 L 1887.8 811.53 C 1866.89 804.158 1846.44 794.112 1827.31 782.972 L 1826.04 782.003 C 1826.06 781.707 1826.08 781.41 1826.11 781.114 C 1826.75 774.799 1832.23 753.858 1837.15 749.872 z"/>
<path transform="translate(0,0)" fill="rgb(28,12,9)" d="M 1839.17 746.641 C 1849.37 748.599 1862.53 758.367 1872.04 763.125 C 1882.42 768.312 1892.92 772.115 1904.13 775.021 C 1903.45 777.982 1903.61 777.878 1901.09 779.561 C 1877.93 772.913 1857.59 762.421 1837.15 749.872 L 1838.2 748.663 C 1844.79 751.29 1851.16 755.814 1857.32 759.397 C 1866.42 764.693 1878.33 770.583 1888.27 773.682 C 1886.1 771.336 1853.63 755.541 1847.41 752.118 C 1845.43 751.029 1841.59 749.559 1840.07 747.985 C 1839.69 747.598 1839.47 747.089 1839.17 746.641 z"/>
<path transform="translate(0,0)" fill="rgb(245,244,236)" d="M 1518.79 1135.5 L 1528.6 1138.41 C 1535.41 1140.01 1542.23 1141.53 1549.07 1142.97 L 1548.53 1144.17 C 1545.94 1143.93 1543.45 1143.56 1540.89 1143.09 L 1540.35 1144.46 C 1541.75 1145.14 1542.36 1145.08 1543.9 1145.16 C 1545.96 1145.26 1547.67 1145.52 1549.66 1146.13 C 1549.14 1147.39 1549.59 1146.93 1548.28 1147.47 C 1558.39 1151.9 1589.72 1154.93 1602 1156.46 C 1585.21 1167.76 1568.74 1179.76 1552.15 1191.39 C 1520.14 1189.67 1485.88 1186.59 1455.31 1176.62 C 1465.26 1168.92 1476.83 1162.61 1487.33 1155.62 C 1496.19 1149.72 1504.58 1142.61 1513.9 1137.5 C 1515.43 1136.7 1517.18 1136.14 1518.79 1135.5 z"/>
<path transform="translate(0,0)" fill="rgb(28,12,9)" d="M 1528.6 1138.41 C 1535.41 1140.01 1542.23 1141.53 1549.07 1142.97 L 1548.53 1144.17 C 1545.94 1143.93 1543.45 1143.56 1540.89 1143.09 L 1540.35 1144.46 C 1541.75 1145.14 1542.36 1145.08 1543.9 1145.16 C 1545.96 1145.26 1547.67 1145.52 1549.66 1146.13 C 1549.14 1147.39 1549.59 1146.93 1548.28 1147.47 C 1539.75 1146.42 1531.36 1144.27 1523.03 1142.24 L 1528.6 1138.41 z"/>
<path transform="translate(0,0)" fill="rgb(28,12,9)" d="M 1518.79 1135.5 L 1528.6 1138.41 L 1523.03 1142.24 C 1519.72 1140.93 1516.91 1139.37 1513.9 1137.5 C 1515.43 1136.7 1517.18 1136.14 1518.79 1135.5 z"/>
<path transform="translate(0,0)" fill="rgb(245,244,236)" d="M 1724.99 950.311 C 1723.68 949.894 1724.5 950.25 1722.78 948.784 C 1722.88 948.423 1722.95 948.051 1723.09 947.701 C 1724.82 943.273 1755.33 905.144 1758.38 903.99 L 1763.91 906.492 C 1780.37 918.673 1805.46 923.651 1824.97 929.269 L 1829.08 930.802 C 1829.87 933.14 1829.96 932.071 1828.81 934.397 C 1822.5 947.241 1810.21 960.764 1801 971.813 L 1786.75 968.957 L 1786.24 970.408 C 1778.67 968.943 1770.5 967.291 1763.34 964.458 C 1761.3 963.649 1760.29 963.555 1758.13 963.729 L 1757.04 964.557 C 1757.4 964.538 1757.77 964.487 1758.13 964.499 C 1763.56 964.674 1773.17 968.381 1778.25 970.476 L 1777.83 971.417 C 1759.18 968.757 1739.17 961.036 1721.75 953.917 L 1724.99 950.311 z"/>
<path transform="translate(0,0)" fill="rgb(28,12,9)" d="M 1724.99 950.311 C 1745.46 957.365 1765.8 963.5 1786.75 968.957 L 1786.24 970.408 C 1778.67 968.943 1770.5 967.291 1763.34 964.458 C 1761.3 963.649 1760.29 963.555 1758.13 963.729 L 1757.04 964.557 C 1757.4 964.538 1757.77 964.487 1758.13 964.499 C 1763.56 964.674 1773.17 968.381 1778.25 970.476 L 1777.83 971.417 C 1759.18 968.757 1739.17 961.036 1721.75 953.917 L 1724.99 950.311 z"/>
<path transform="translate(0,0)" fill="rgb(245,244,236)" d="M 1333.17 1246.83 C 1341.4 1241.41 1386.69 1215.88 1393.69 1215.34 C 1395.18 1215.22 1396.69 1217.07 1397.81 1218.01 C 1403.09 1221.22 1409.21 1222.49 1415.22 1223.71 C 1424.22 1225.29 1433.2 1226.51 1442.29 1227.52 C 1455.6 1230.24 1469.5 1231.6 1482.95 1233.76 C 1464.46 1247.96 1442.14 1259.13 1421.96 1270.93 C 1392.67 1263.55 1361.07 1258.44 1333.17 1246.83 z"/>
<path transform="translate(0,0)" fill="rgb(245,244,236)" d="M 1450.75 1179.41 C 1479.73 1192.17 1514.37 1193.98 1545.66 1196.32 C 1526.74 1206.85 1508.88 1219.02 1489.89 1229.43 L 1445.05 1223.42 L 1444.36 1226.45 L 1442.29 1227.52 C 1433.2 1226.51 1424.22 1225.29 1415.22 1223.71 C 1409.21 1222.49 1403.09 1221.22 1397.81 1218.01 L 1399.04 1214.26 L 1397.75 1213.05 C 1399.89 1210.5 1445.11 1182.36 1450.75 1179.41 z"/>
<path transform="translate(0,0)" fill="rgb(28,12,9)" d="M 1417.06 1219.42 L 1445.05 1223.42 L 1444.36 1226.45 L 1442.29 1227.52 C 1433.2 1226.51 1424.22 1225.29 1415.22 1223.71 L 1417.06 1219.42 z"/>
<path transform="translate(0,0)" fill="rgb(28,12,9)" d="M 1399.04 1214.26 C 1405.07 1215.9 1411.08 1217.62 1417.06 1219.42 L 1415.22 1223.71 C 1409.21 1222.49 1403.09 1221.22 1397.81 1218.01 L 1399.04 1214.26 z"/>
<path transform="translate(0,0)" fill="rgb(245,244,236)" d="M 1518.79 1135.5 C 1518.27 1134.83 1518.57 1135.34 1518.61 1133.75 C 1535.03 1123.8 1548.87 1111.01 1564.65 1100.26 C 1568.29 1101.62 1572.04 1102.74 1575.73 1103.96 C 1577 1102.53 1578.36 1101.51 1579.86 1100.31 C 1599.54 1104.56 1619.32 1107.41 1639.04 1111.25 L 1638.36 1112.67 C 1629 1111.32 1615.92 1107.25 1606.68 1108.12 L 1606.2 1108.5 C 1608.44 1110.63 1611.78 1111.02 1614.75 1110.97 C 1615.12 1110.96 1615.49 1110.92 1615.86 1110.93 C 1622.25 1111 1635.31 1112.9 1641.16 1115.68 L 1639.29 1116.51 L 1650.92 1118.61 C 1637.12 1130.51 1622.37 1141.31 1607.76 1152.18 C 1588.31 1149.36 1568.57 1144.99 1549.07 1142.97 C 1542.23 1141.53 1535.41 1140.01 1528.6 1138.41 L 1518.79 1135.5 z"/>
<path transform="translate(0,0)" fill="rgb(28,12,9)" d="M 1579.86 1100.31 C 1599.54 1104.56 1619.32 1107.41 1639.04 1111.25 L 1638.36 1112.67 C 1629 1111.32 1615.92 1107.25 1606.68 1108.12 L 1606.2 1108.5 C 1608.44 1110.63 1611.78 1111.02 1614.75 1110.97 C 1615.12 1110.96 1615.49 1110.92 1615.86 1110.93 C 1622.25 1111 1635.31 1112.9 1641.16 1115.68 L 1639.29 1116.51 C 1617.84 1113.77 1596.6 1109.58 1575.73 1103.96 C 1577 1102.53 1578.36 1101.51 1579.86 1100.31 z"/>
<path transform="translate(0,0)" fill="rgb(245,244,236)" d="M 1324.84 1250.82 C 1330.81 1250.37 1345.43 1257.28 1352.27 1259.26 C 1372.61 1265.12 1393.38 1269.18 1413.79 1274.71 C 1396.34 1282.57 1379.58 1296.22 1362.47 1302.71 C 1360.94 1303.29 1359.67 1303.14 1358.11 1302.83 C 1327.82 1294.68 1297.59 1288.25 1267.51 1278.97 C 1285.85 1268.22 1306.37 1261.54 1324.84 1250.82 z"/>
<path transform="translate(0,0)" fill="rgb(245,244,236)" d="M 1783.2 865.34 C 1806.96 874.577 1830.15 884.331 1854.41 892.354 C 1848.66 902.863 1842.49 917.8 1833.16 925.503 C 1830.87 925.936 1829.55 925.708 1827.31 925.098 L 1824.97 929.269 C 1805.46 923.651 1780.37 918.673 1763.91 906.492 C 1766.87 904.851 1783.24 914.864 1788.8 915.564 C 1782.09 912.665 1769.49 908.353 1764.47 903.058 L 1765.82 902.485 C 1763.85 900.559 1762.25 899.663 1761.65 896.904 C 1768.36 886.076 1776.22 876.002 1783.2 865.34 z"/>
<path transform="translate(0,0)" fill="rgb(28,12,9)" d="M 1763.91 906.492 C 1766.87 904.851 1783.24 914.864 1788.8 915.564 C 1782.09 912.665 1769.49 908.353 1764.47 903.058 L 1765.82 902.485 C 1785.94 912.362 1805.82 919.057 1827.31 925.098 L 1824.97 929.269 C 1805.46 923.651 1780.37 918.673 1763.91 906.492 z"/>
<path transform="translate(0,0)" fill="rgb(245,244,236)" d="M 1868.62 592.465 C 1876.8 597.598 1906.24 614.293 1911.07 619.6 L 1909.44 620.116 C 1904.05 617.298 1897.62 614.267 1892.96 610.381 C 1895.91 612.994 1899.01 616.17 1902.4 618.176 C 1906.07 620.353 1910.2 621.188 1913.42 624.151 L 1913.36 624.874 C 1915.03 625.455 1916.43 625.775 1917.68 627.109 C 1922.69 632.479 1919.99 672.179 1919.24 680.978 C 1899.32 673.529 1880.24 663.906 1861.04 654.775 C 1864.26 636.018 1866.37 616.964 1868.34 598.038 L 1868.62 592.465 z"/>
<path transform="translate(0,0)" fill="rgb(28,12,9)" d="M 1868.62 592.465 C 1876.8 597.598 1906.24 614.293 1911.07 619.6 L 1909.44 620.116 C 1904.05 617.298 1897.62 614.267 1892.96 610.381 C 1895.91 612.994 1899.01 616.17 1902.4 618.176 C 1906.07 620.353 1910.2 621.188 1913.42 624.151 L 1913.36 624.874 C 1902.65 623.186 1878.55 604.702 1868.34 598.038 L 1868.62 592.465 z"/>
<path transform="translate(0,0)" fill="rgb(245,244,236)" d="M 1859.64 659.999 C 1879.91 667.168 1898.74 678.664 1918.94 686.338 C 1919.2 694.564 1918.18 725.31 1913.77 730.731 L 1911.77 730.427 C 1890.1 723.477 1870.04 714.731 1849.3 705.521 L 1859.64 659.999 z"/>
<path transform="translate(0,0)" fill="rgb(245,244,236)" d="M 1039.84 1369.14 C 1043.56 1371.95 1047 1374.71 1051.32 1376.57 L 1052.87 1375.59 C 1054.3 1376.56 1055.66 1377.22 1057.25 1377.88 L 1056.79 1376.18 L 1055.29 1375.46 L 1056.78 1374.35 C 1070.94 1380.04 1085.07 1385.94 1099.47 1391.02 L 1097.9 1395.89 C 1099.57 1396.67 1101.8 1397.13 1102.5 1398.86 C 1095.44 1402.73 1052.97 1411.9 1042.85 1414.42 C 1022.84 1406.9 1002.14 1396.54 983.596 1385.85 C 1002.14 1379.47 1020.97 1374.42 1039.84 1369.14 z"/>
<path transform="translate(0,0)" fill="rgb(28,12,9)" d="M 1051.32 1376.57 L 1052.87 1375.59 C 1054.3 1376.56 1055.66 1377.22 1057.25 1377.88 L 1056.79 1376.18 L 1055.29 1375.46 L 1056.78 1374.35 C 1070.94 1380.04 1085.07 1385.94 1099.47 1391.02 L 1097.9 1395.89 C 1082.28 1390.67 1065.01 1385.91 1051.32 1376.57 z"/>
<path transform="translate(0,0)" fill="rgb(245,244,236)" d="M 859.347 1512.93 C 860.243 1506.57 872.287 1487.68 875.829 1480.72 C 883.665 1493.62 891.564 1506.5 897.756 1520.3 C 891.637 1533.13 883.084 1544.25 874.687 1555.63 L 871.934 1558.84 L 872.318 1559.65 C 869.478 1568.49 857.511 1582.05 852.002 1590.35 C 847.03 1576.55 843.122 1562.19 838.784 1548.17 C 845.531 1538.65 850.994 1528.26 856.704 1518.11 C 857.305 1516.15 858.287 1514.67 859.347 1512.93 z"/>
<path transform="translate(0,0)" fill="rgb(245,244,236)" d="M 856.704 1518.11 C 862.824 1530.23 864.989 1548.77 871.934 1558.84 L 872.318 1559.65 C 869.478 1568.49 857.511 1582.05 852.002 1590.35 C 847.03 1576.55 843.122 1562.19 838.784 1548.17 C 845.531 1538.65 850.994 1528.26 856.704 1518.11 z"/>
<path transform="translate(0,0)" fill="rgb(28,12,9)" d="M 856.704 1518.11 C 857.305 1516.15 858.287 1514.67 859.347 1512.93 C 867.363 1526.14 872.552 1540.25 874.687 1555.63 L 871.934 1558.84 C 864.989 1548.77 862.824 1530.23 856.704 1518.11 z"/>
<path transform="translate(0,0)" fill="rgb(245,244,236)" d="M 1868.62 592.465 C 1869.81 582.78 1867.68 559.94 1870.75 552.724 L 1872.64 553.489 L 1881.74 560.893 L 1886.31 557.937 C 1892.48 561.81 1898.69 565.425 1905.11 568.867 L 1904.53 570.188 C 1904 569.908 1903.47 569.62 1902.94 569.346 C 1900.79 568.244 1901.69 568.588 1899.56 568.07 L 1899.86 569.734 C 1902.49 570.824 1904.91 571.261 1906.62 573.592 L 1906.7 574.441 C 1909.28 575.669 1911.84 576.923 1914.5 577.965 C 1916.42 587.908 1921.07 611.284 1918.64 620.559 C 1915.91 621.108 1913.68 620.316 1911.07 619.6 C 1906.24 614.293 1876.8 597.598 1868.62 592.465 z"/>
<path transform="translate(0,0)" fill="rgb(28,12,9)" d="M 1886.31 557.937 C 1892.48 561.81 1898.69 565.425 1905.11 568.867 L 1904.53 570.188 C 1904 569.908 1903.47 569.62 1902.94 569.346 C 1900.79 568.244 1901.69 568.588 1899.56 568.07 L 1899.86 569.734 C 1902.49 570.824 1904.91 571.261 1906.62 573.592 L 1906.7 574.441 C 1897.57 571.395 1889.67 566.225 1881.74 560.893 L 1886.31 557.937 z"/>
<path transform="translate(0,0)" fill="rgb(245,244,236)" d="M 1867.33 506.252 C 1878.07 511.775 1889.21 518.684 1900.43 523.049 C 1905.74 535.09 1912.51 557.524 1912.54 570.62 C 1909.78 570.985 1907.62 569.866 1905.11 568.867 C 1898.69 565.425 1892.48 561.81 1886.31 557.937 L 1881.74 560.893 L 1872.64 553.489 L 1876.16 550.263 C 1874.31 548.666 1872.5 547.34 1870.43 546.041 C 1868.97 532.799 1869.19 519.439 1867.33 506.252 z"/>
<path transform="translate(0,0)" fill="rgb(28,12,9)" d="M 1876.16 550.263 C 1879.45 552.667 1883.49 555.042 1886.31 557.937 L 1881.74 560.893 L 1872.64 553.489 L 1876.16 550.263 z"/>
<path transform="translate(0,0)" fill="rgb(245,244,236)" d="M 833.822 1555.78 C 838.181 1560.68 845.161 1589.21 847.412 1596.82 C 837.729 1608.15 828.443 1619.85 819.021 1631.4 C 817.412 1633.02 815.679 1635.74 813.383 1635.79 C 814.599 1620.6 813.858 1606.94 809.936 1592.17 C 817.441 1579.8 825.829 1567.85 833.822 1555.78 z"/>
<path transform="translate(0,0)" fill="rgb(245,244,236)" d="M 914.802 1392.89 C 935.733 1393.16 966.437 1415.52 986.547 1425 L 973.5 1428.66 C 961.963 1430.99 952.258 1433.32 941.788 1438.76 C 930.963 1427.42 922.606 1413.97 911.552 1402.65 L 914.802 1392.89 z"/>
<path transform="translate(0,0)" fill="rgb(245,244,236)" d="M 894.594 1442.18 C 903.234 1454.5 911.579 1468.06 921.348 1479.5 C 914.809 1487.64 907.776 1503.7 901.955 1513.47 C 894.564 1500.24 886.944 1487.17 878.483 1474.59 C 884.356 1464.05 888.996 1452.87 894.594 1442.18 z"/>
<path transform="translate(0,0)" fill="rgb(245,244,236)" d="M 972.66 1387.13 C 976.195 1386.99 980.34 1390.4 983.33 1392.18 C 999.075 1401.57 1015.8 1408.09 1031.84 1416.76 C 1021.18 1419.28 1010.03 1420.15 999.258 1422.51 C 988.82 1422.88 949.393 1398.52 938.794 1392.76 C 950.346 1391.89 961.439 1390.02 972.66 1387.13 z"/>
<path transform="translate(0,0)" fill="rgb(245,244,236)" d="M 898.406 1440.96 C 897.082 1438.28 897.145 1437.4 898.078 1434.55 C 900.995 1425.63 905.246 1416.86 908.706 1408.1 C 919.129 1420.65 929.213 1433.48 938.945 1446.57 C 934.168 1456.38 928.674 1465.61 923.603 1475.24 C 916.5 1462.74 908.94 1450.84 898.406 1440.96 z"/>
<path transform="translate(0,0)" fill="rgb(245,244,236)" d="M 804.439 1600.5 L 805.598 1601.57 C 809.501 1613.25 807.736 1630.57 807.786 1642.97 C 798.509 1652.24 789.121 1661.4 779.622 1670.44 C 779.182 1660.03 777.668 1649.97 775.466 1639.8 C 785.609 1627.25 795.308 1613.8 804.439 1600.5 z"/>
<path transform="translate(0,0)" fill="rgb(245,244,236)" d="M 736.489 1687.7 C 739.394 1690.17 739.122 1702.82 740.205 1707.4 C 723.21 1724.17 702.316 1735.56 682.867 1749.01 C 668.04 1759.26 653.893 1770.41 638.54 1779.9 C 637.452 1780.62 638.12 1780.36 636.446 1780.37 C 641.292 1775.61 647.243 1772.16 652.538 1767.92 C 663.751 1758.94 674.535 1749.29 685.279 1739.76 C 703.402 1723.69 719.569 1705.04 736.489 1687.7 z"/>
<path transform="translate(0,0)" fill="rgb(245,244,236)" d="M 1859.96 460.629 C 1869.16 465.957 1877.76 472.102 1886.45 478.197 L 1899.74 516.099 C 1888.29 511.894 1876.95 504.942 1866.43 498.773 C 1864.38 486.042 1862.22 473.327 1859.96 460.629 z"/>
<path transform="translate(0,0)" fill="rgb(245,244,236)" d="M 769.627 1647.81 C 773.736 1652.29 773.34 1667.62 775.364 1674.26 C 766.03 1683.82 756.647 1693.19 746.741 1702.17 L 745.173 1702.85 C 742.717 1698.69 743.459 1686.43 742.743 1680.88 C 751.905 1670.06 760.524 1658.71 769.627 1647.81 z"/>
<path transform="translate(0,0)" fill="rgb(245,244,236)" d="M 1850.41 418.618 C 1854.41 420.583 1858.45 422.455 1862.54 424.232 C 1868.6 434.35 1878.9 452.802 1881.14 464.24 L 1879.25 464.267 L 1878.75 464.513 L 1878.87 465.7 C 1874.52 466.33 1861.61 455.59 1857.59 452.68 C 1855.46 441.276 1852.13 430.088 1850.41 418.618 z"/>
<path transform="translate(0,0)" fill="rgb(245,244,236)" d="M 1834.23 368.439 C 1840.61 373.124 1857.58 408.654 1860.53 417.199 C 1855.48 415.192 1851.03 412.006 1846.64 408.87 C 1840.9 396.545 1837.97 381.52 1834.23 368.439 z"/>
<path transform="translate(0,0)" fill="rgb(51,31,28)" d="M 293.38 1544.54 C 294.718 1544.57 295.916 1544.62 297.191 1545.07 C 303.273 1547.26 309.491 1553.22 314.331 1557.35 C 339.219 1578.61 357.281 1602.42 370.148 1632.58 C 374.677 1643.19 390.137 1692.27 385.185 1701.98 C 384.783 1702.76 384.601 1702.91 383.752 1703.12 C 376.272 1705.01 350.304 1690.29 343.176 1686.12 C 322.779 1673.01 302.796 1659.16 282.336 1646.18 C 267.765 1636.93 251.874 1628.73 238.635 1617.6 C 235.387 1614.87 233.411 1611.37 231.328 1607.73 C 232.729 1607.16 234.111 1606.55 235.506 1605.96 C 248.671 1600.4 281.559 1557.66 293.38 1544.54 z"/>
<path transform="translate(0,0)" fill="rgb(79,174,164)" d="M 295.196 1557.61 C 304.797 1571.38 317.259 1583.17 327.949 1596.1 C 349.5 1622.17 363.002 1654.36 373.211 1686.36 C 366.078 1680.68 358.516 1675.48 351.115 1670.15 C 334.417 1657.31 317.667 1644.07 299.669 1633.08 C 285.113 1624.19 267.799 1618.03 254.753 1607.02 C 268.545 1593.31 287.674 1575.52 295.196 1557.61 z"/>
<path transform="translate(0,0)" fill="rgb(51,31,28)" d="M 202.225 1664.56 C 230.503 1667 256.94 1664.9 284.888 1673.91 C 292.893 1676.49 300.927 1679.88 308.397 1683.75 C 317.301 1688.36 357.112 1712.55 360.173 1721.03 C 361.183 1723.83 360.85 1724.46 359.797 1727.05 C 353.719 1731.93 342.682 1731.01 335.085 1731.71 C 305.487 1734.05 276.318 1740.03 247.103 1744.97 C 235.798 1746.88 224.338 1747.98 212.998 1749.71 C 210.301 1751.61 209.182 1755.45 207.904 1758.42 L 202.74 1746.43 C 204.531 1734.04 204.326 1721.73 203.946 1709.25 C 203.655 1699.67 199.691 1671.51 202.225 1664.56 z"/>
<path transform="translate(0,0)" fill="rgb(79,174,164)" d="M 218.336 1682 C 245.985 1682.73 279.011 1688.28 304.322 1699.11 C 316.692 1704.4 328.558 1711.55 340.35 1718.05 L 325.754 1718.42 C 308.039 1719.82 290.06 1720.78 272.461 1723.24 C 254.459 1725.75 236.905 1729.79 218.741 1731.28 C 219.613 1714.65 219.873 1698.6 218.336 1682 z"/>
</svg>